PathFileType	4	(X/Y/Z)	/Users/itak/Documents/Research/Walk-IL/dataset/trc/00074_00006.trc
DataRate	CameraRate	NumFrames	NumMarkers	Units	OrigDataRate	OrigDataStartFrame	OrigNumFrames
100.000000	100.000000	4	53	mm	100.000000	538	718
Frame#	Time	RPSI			LPSI			L3			STRN			T10			C7			CLAV			RBAK			LBAK			LSHO			LUPA			LAEL			LAOL			LWTS			LWPS			LFRA			LIFD			LHPS			LHTS			RSHO			RUPA			RAEL			RAOL			RWTS			RWPS			RFRA			RIFD			RHTS			RHPS			RBHD			LFHD			RFHD			LBHD			LHIP			RHIP			RASI			LASI			LKNE			LTHI			LANK			LTIP			LTOE			LMT1			LMT5			LHEE			RKNE			RTHI			RANK			RTIP			RTOE			RMT1			RMT5			RHEE			
		X1	Y1	Z1	X2	Y2	Z2	X3	Y3	Z3	X4	Y4	Z4	X5	Y5	Z5	X6	Y6	Z6	X7	Y7	Z7	X8	Y8	Z8	X9	Y9	Z9	X10	Y10	Z10	X11	Y11	Z11	X12	Y12	Z12	X13	Y13	Z13	X14	Y14	Z14	X15	Y15	Z15	X16	Y16	Z16	X17	Y17	Z17	X18	Y18	Z18	X19	Y19	Z19	X20	Y20	Z20	X21	Y21	Z21	X22	Y22	Z22	X23	Y23	Z23	X24	Y24	Z24	X25	Y25	Z25	X26	Y26	Z26	X27	Y27	Z27	X28	Y28	Z28	X29	Y29	Z29	X30	Y30	Z30	X31	Y31	Z31	X32	Y32	Z32	X33	Y33	Z33	X34	Y34	Z34	X35	Y35	Z35	X36	Y36	Z36	X37	Y37	Z37	X38	Y38	Z38	X39	Y39	Z39	X40	Y40	Z40	X41	Y41	Z41	X42	Y42	Z42	X43	Y43	Z43	X44	Y44	Z44	X45	Y45	Z45	X46	Y46	Z46	X47	Y47	Z47	X48	Y48	Z48	X49	Y49	Z49	X50	Y50	Z50	X51	Y51	Z51	X52	Y52	Z52	X53	Y53	Z53	

539	5.38	690.8665771484375	1006.315063476562	439.6631469726562	855.79736328125	994.353515625	492.5544738769531	778.0323486328125	1063.972290039062	472.9700317382812	671.1740112304688	1262.221069335938	703.5822143554688	791.8842163085938	1195.614501953125	462.2759094238281	761.0932006835938	1463.172973632812	512.2030029296875	681.0872192382812	1376.647338867188	673.742431640625	726.271240234375	1321.0068359375	426.3428955078125	861.7675170898438	1430.457275390625	535.73291015625	880.987548828125	1438.452270507812	658.876220703125	961.779296875	1316.192993164062	679.70361328125	983.2135620117188	1105.779663085938	721.0018310546875	929.1362915039062	1080.557373046875	632.074462890625	883.7769775390625	882.2922973632812	815.6121215820312	959.1201171875	862.0847778320312	784.4497680664062	980.4920654296875	1000.132019042969	756.9295043945312	852.8771362304688	698.8272705078125	845.1963500976562	939.4689331054688	786.93994140625	824.1139526367188	874.5313110351562	802.8757934570312	848.2958374023438	578.6715087890625	1420.99560546875	490.5143737792969	532.0942993164062	1353.914306640625	449.08203125	517.1239013671875	1099.804443359375	384.6893920898438	585.2509155273438	1071.274536132812	451.1517028808594	460.3174133300781	851.7440795898438	529.828857421875	456.6834716796875	835.2186279296875	444.2982788085938	499.0603637695312	1017.558532714844	389.3638000488281	474.3408203125	659.8883666992188	543.025390625	451.4487609863281	745.764892578125	547.3866577148438	438.69775390625	745.4220581054688	471.2725524902344	790.3320922851562	1652.418701171875	602.0987548828125	575.287841796875	1663.160034179688	607.8925170898438	649.9476928710938	1689.515747070312	705.7535400390625	702.6448974609375	1617.50537109375	502.1093139648438	905.8430786132812	936.3606567382812	623.2787475585938	594.0222778320312	936.562744140625	477.3946533203125	570.7402954101562	958.0452270507812	601.0404663085938	816.3920288085938	950.5946655273438	707.8694458007812	849.730224609375	469.2177124023438	741.8295288085938	886.21484375	616.77294921875	706.390625	978.0853881835938	209.2477416992188	335.7438354492188	930.74560546875	327.8915405273438	534.7216796875	948.5172729492188	55.26888275146484	463.4613037109375	901.7384033203125	89.62834930419922	424.8709716796875	1005.309143066406	121.8274002075195	395.1231079101562	907.903076171875	249.6242218017578	295.6161193847656	613.9465942382812	506.0106201171875	665.2064208984375	563.9288940429688	765.4269409179688	587.1541137695312	712.970947265625	32.85249328613281	661.3209228515625	628.4803466796875	377.7547912597656	668.77294921875	645.9064331054688	40.69691467285156	870.2275390625	707.102294921875	44.80114364624023	833.671875	640.8703002929688	44.80396270751953	761.9203491210938	783.4005126953125	34.97132110595703	648.2409057617188	
540	5.39	690.014892578125	1007.273681640625	445.6495361328125	854.25732421875	995.044921875	500.9968566894531	776.655517578125	1064.803100585938	480.1298828125	667.0799560546875	1263.164794921875	709.2657470703125	790.321044921875	1196.547973632812	469.3916931152344	759.1798706054688	1464.051025390625	519.1206665039062	677.4505615234375	1377.566528320312	679.7198486328125	725.1275024414062	1321.990478515625	432.7934265136719	859.56396484375	1431.24951171875	543.596923828125	877.6201782226562	1439.147583007812	666.9295654296875	958.042236328125	1316.729614257812	688.4619140625	978.5888671875	1106.247436523438	729.8134765625	925.6768188476562	1081.2626953125	640.0678100585938	878.9107666015625	881.603271484375	821.5037231445312	955.05859375	862.2033081054688	791.7802124023438	975.8038940429688	1000.461059570312	765.1954956054688	849.01806640625	697.734130859375	849.752685546875	935.2702026367188	786.715087890625	830.7570190429688	869.7462768554688	801.97119140625	853.781982421875	576.942138671875	1422.041748046875	495.5285034179688	530.749755859375	1354.938720703125	453.6453247070312	516.3645629882812	1100.72705078125	389.180908203125	583.9298706054688	1072.364624023438	456.3495483398438	458.084228515625	853.2410278320312	535.049072265625	455.1845092773438	836.3197021484375	449.5867309570312	498.27783203125	1018.493530273438	393.8933715820312	471.8811950683594	661.4330444335938	549.2597045898438	448.91259765625	747.4068603515625	553.0093383789062	436.9075012207031	746.6531372070312	476.8311462402344	787.2978515625	1653.359619140625	609.4512939453125	572.2197875976562	1663.953735351562	613.3295288085938	645.9444580078125	1690.247314453125	711.8873901367188	700.57421875	1618.488525390625	508.6515502929688	902.0233764648438	937.3440551757812	632.7174072265625	592.707275390625	937.3319702148438	481.6065063476562	567.3009033203125	958.7969970703125	604.8416137695312	811.1824340820312	951.6444702148438	715.5236206054688	842.1303100585938	472.3793640136719	759.7037353515625	880.395751953125	619.2234497070312	721.9429931640625	976.96533203125	211.8005676269531	356.1402587890625	926.4306030273438	330.6665954589844	553.875	946.5681762695312	59.93115234375	486.2421569824219	900.3455810546875	93.2271728515625	446.19580078125	1004.144348144531	126.2275161743164	417.7872924804688	907.1431884765625	250.9366302490234	314.2219848632812	612.1323852539062	505.8056030273438	666.5286865234375	561.9227294921875	765.6531372070312	590.0430908203125	712.8967895507812	32.83499908447266	661.3577880859375	627.408203125	377.6231689453125	669.6040649414062	645.2892456054688	40.156982421875	870.1607055664062	706.8637084960938	44.80014419555664	833.7327880859375	640.38818359375	44.27893447875977	761.9063110351562	783.4482421875	35.07869720458984	648.3055419921875	
541	5.4	689.200927734375	1008.216125488281	451.5823974609375	852.703125	995.8158569335938	509.3850402832031	775.3153686523438	1065.627807617188	487.1882629394531	663.0121459960938	1264.12255859375	714.8978271484375	788.7594604492188	1197.475830078125	476.451416015625	757.2427368164062	1464.9208984375	525.9374389648438	673.836181640625	1378.49609375	685.6073608398438	723.9965209960938	1322.960693359375	439.1687316894531	857.3087158203125	1432.04150390625	551.376953125	874.224609375	1439.89453125	674.8680419921875	954.3247680664062	1317.336181640625	697.066650390625	974.0255126953125	1106.780395507812	738.3379516601562	922.1802978515625	1082.044311523438	647.875	874.15380859375	881.0211791992188	827.2623901367188	951.0471801757812	862.434814453125	798.937255859375	971.1950073242188	1000.873474121094	773.21923828125	845.3654174804688	696.818603515625	854.4067993164062	931.2078857421875	786.6441650390625	837.3021850585938	865.15771484375	801.2383422851562	859.26318359375	575.2385864257812	1423.08154296875	500.434814453125	529.43994140625	1355.960693359375	458.0999450683594	515.6715698242188	1101.646850585938	393.5880432128906	582.620361328125	1073.4189453125	461.5210266113281	455.831298828125	854.7457275390625	540.1712036132812	453.6581420898438	837.4426879882812	454.7857666015625	497.5765380859375	1019.446411132812	398.2885131835938	469.3020935058594	662.9569091796875	555.3180541992188	446.3258361816406	749.0338745117188	558.4954223632812	435.0374450683594	747.9124755859375	482.272216796875	784.2855834960938	1654.268432617188	616.7200927734375	569.1730346679688	1664.758666992188	618.7346801757812	642.0108642578125	1690.9501953125	717.9682006835938	698.5045166015625	1619.479125976562	515.1345825195312	898.1671142578125	938.3997802734375	642.0552978515625	591.4497680664062	938.0671997070312	485.7348022460938	563.9091796875	959.5236206054688	608.4923706054688	805.9630737304688	952.754150390625	723.10107421875	834.1080932617188	475.7875061035156	777.1079711914062	874.2740478515625	621.8565063476562	737.2379760742188	975.6187133789062	213.1421966552734	377.27490234375	921.8428955078125	333.027099609375	573.1621704101562	944.0838012695312	63.97812652587891	510.056396484375	898.4869384765625	96.03382873535156	468.5095825195312	1002.551940917969	129.5442352294922	441.3852233886719	906.274169921875	250.9579772949219	333.3742980957031	610.4577026367188	505.615966796875	667.6905517578125	560.024658203125	765.8505249023438	592.8121948242188	712.8200073242188	32.84039688110352	661.3726806640625	626.4342041015625	377.5225524902344	670.289794921875	644.780517578125	39.78168487548828	870.060302734375	706.681396484375	44.87331008911133	833.7694091796875	639.9820556640625	43.83209228515625	761.88037109375	783.510009765625	35.17024612426758	648.3505859375	
542	5.41	688.4202880859375	1009.127014160156	457.4721374511719	851.1397094726562	996.60546875	517.6996459960938	773.9971313476562	1066.438842773438	494.1563720703125	658.9561157226562	1265.08056640625	720.478515625	787.1969604492188	1198.390502929688	483.4603271484375	755.273681640625	1465.77197265625	532.664306640625	670.2216186523438	1379.421997070312	691.4049682617188	722.8746337890625	1323.907470703125	445.4813232421875	855.0054321289062	1432.82763671875	559.0906982421875	870.7935791015625	1440.67626953125	682.7111206054688	950.619384765625	1317.997924804688	705.5366821289062	969.543701171875	1107.359619140625	746.5889892578125	918.657470703125	1082.88330078125	655.505859375	869.5238037109375	880.5488891601562	832.94677734375	947.0811157226562	862.7470092773438	805.9036865234375	966.6870727539062	1001.343383789062	781.0023803710938	841.8697509765625	696.072265625	859.1638793945312	927.2689819335938	786.6878662109375	843.7219848632812	860.7670288085938	800.6591796875	864.759033203125	573.5556640625	1424.099975585938	505.2408752441406	528.1596069335938	1356.963256835938	462.4544677734375	515.0208740234375	1102.540649414062	397.9289855957031	581.2918701171875	1074.398803710938	466.6813659667969	453.5538024902344	856.242431640625	545.1917724609375	452.1061096191406	838.5625610351562	459.8952026367188	496.9247436523438	1020.393920898438	402.5741577148438	466.6356811523438	664.4497680664062	561.2473754882812	443.7087707519531	750.6266479492188	563.8624267578125	433.1077575683594	749.1742553710938	487.6064758300781	781.2932739257812	1655.139770507812	623.89794921875	566.1376342773438	1665.571411132812	624.1039428710938	638.1456909179688	1691.624877929688	723.9915161132812	696.4163818359375	1620.473510742188	521.5496826171875	894.2772827148438	939.488037109375	651.2861328125	590.2572021484375	938.7593383789062	489.789306640625	560.56494140625	960.2137451171875	612.0197143554688	800.7418212890625	953.8800659179688	730.5974731445312	825.6701049804688	479.4002990722656	793.9844970703125	867.82275390625	624.6309204101562	752.2235107421875	974.0379638671875	213.2785186767578	399.1210021972656	916.964111328125	334.9345703125	592.5614013671875	940.9600830078125	67.31831359863281	534.7976684570312	896.0604248046875	98.02957153320312	491.6629028320312	1000.446044921875	131.7383117675781	465.8185729980469	905.3118896484375	249.7252960205078	353.0616760253906	608.9310302734375	505.4264526367188	668.71875	558.2366333007812	766.0094604492188	595.48291015625	712.7361450195312	32.86983489990234	661.3671875	625.5524291992188	377.452880859375	670.858642578125	644.372802734375	39.53287887573242	869.9486694335938	706.5460205078125	45.00212860107422	833.7916259765625	639.65478515625	43.46007919311523	761.8549194335938	783.5792846679688	35.24996185302734	648.3785400390625	
